<svg xmlns="http://www.w3.org/2000/svg" width="26.704" height="23.992" viewBox="0 0 26.704 23.992"><defs><style>.a{fill:#fff;}</style></defs><path class="a" d="M246.522,100a.522.522,0,1,0,.522.522A.522.522,0,0,0,246.522,100Zm0,0" transform="translate(-233.169 -94.784)"/><path class="a" d="M80.522,261.043a.522.522,0,1,0-.522-.522A.522.522,0,0,0,80.522,261.043Zm0,0" transform="translate(-75.827 -246.439)"/><path class="a" d="M17.525,0c-4.7,0-8.549,3.237-8.847,7.315C4.205,7.539,0,10.764,0,15.125a7.288,7.288,0,0,0,2.034,4.988A3.172,3.172,0,0,1,1.2,23.1a.522.522,0,0,0,.369.89,5.753,5.753,0,0,0,3.986-1.611,11.886,11.886,0,0,0,3.629.568c4.695,0,8.548-3.237,8.847-7.314a11.728,11.728,0,0,0,3.127-.556,5.753,5.753,0,0,0,3.986,1.611.522.522,0,0,0,.369-.89,3.172,3.172,0,0,1-.838-2.988A7.288,7.288,0,0,0,26.7,7.823C26.7,3.292,22.175,0,17.525,0ZM9.18,21.906a10.544,10.544,0,0,1-3.573-.615.522.522,0,0,0-.578.132,4.706,4.706,0,0,1-2.341,1.389,4.218,4.218,0,0,0,.318-3.1.521.521,0,0,0-.128-.22,6.268,6.268,0,0,1-1.835-4.362c0-3.675,3.726-6.78,8.136-6.78,4.165,0,7.823,2.9,7.823,6.78C17,18.864,13.493,21.906,9.18,21.906Zm14.646-9.721a.523.523,0,0,0-.128.22,4.218,4.218,0,0,0,.318,3.1,4.7,4.7,0,0,1-2.341-1.389.522.522,0,0,0-.578-.132,10.274,10.274,0,0,1-3.073.6,7.466,7.466,0,0,0-2.818-5.2h6.8a.522.522,0,0,0,0-1.043H13.6A9.727,9.727,0,0,0,9.723,7.317c.3-3.5,3.684-6.274,7.8-6.274,4.41,0,8.136,3.1,8.136,6.78A6.268,6.268,0,0,1,23.826,12.185Zm0,0"/><path class="a" d="M127.093,260h-6.572a.522.522,0,1,0,0,1.043h6.572a.522.522,0,1,0,0-1.043Zm0,0" transform="translate(-113.741 -246.439)"/><path class="a" d="M89.18,320H80.522a.522.522,0,0,0,0,1.043H89.18a.522.522,0,0,0,0-1.043Zm0,0" transform="translate(-75.827 -303.31)"/><path class="a" d="M293.093,100h-6.572a.522.522,0,1,0,0,1.043h6.572a.522.522,0,1,0,0-1.043Zm0,0" transform="translate(-271.083 -94.784)"/></svg>