<svg xmlns="http://www.w3.org/2000/svg" width="24.01" height="24.01" viewBox="0 0 24.01 24.01"><defs><style>.a{fill:#fff;}</style></defs><path class="a" d="M33.11,11.255a2.1,2.1,0,0,0,1.463-.592l2.07,1.035a2.11,2.11,0,1,0,4-.649l2.814-2.814A2.11,2.11,0,0,0,46.379,5.7l2.445-1.833a2.107,2.107,0,1,0-.845-1.125L45.534,4.575A2.11,2.11,0,0,0,42.461,7.24l-2.814,2.814a2.106,2.106,0,0,0-2.373.386L35.2,9.4a2.11,2.11,0,1,0-2.094,1.85ZM49.992,1.407a.7.7,0,1,1-.7.7A.7.7,0,0,1,49.992,1.407ZM44.365,5.627a.7.7,0,1,1-.7.7A.7.7,0,0,1,44.365,5.627Zm-5.627,5.627a.7.7,0,1,1-.7.7A.7.7,0,0,1,38.738,11.255ZM33.11,8.441a.7.7,0,1,1-.7.7A.7.7,0,0,1,33.11,8.441Zm0,0" transform="translate(-29.546)"/><path class="a" d="M23.307,165.569h-.75V150.7a.7.7,0,0,0-.7-.7H19.039a.7.7,0,0,0-.7.7v14.866H16.929V154.924a.7.7,0,0,0-.7-.7H13.412a.7.7,0,0,0-.7.7v10.645H11.3v-5.018a.7.7,0,0,0-.7-.7H7.785a.7.7,0,0,0-.7.7v5.018H5.674v-7.831a.7.7,0,0,0-.7-.7H2.157a.7.7,0,0,0-.7.7v7.831H.7a.7.7,0,1,0,0,1.407h22.6a.7.7,0,1,0,0-1.407Zm-3.564-14.162H21.15v14.162H19.743Zm-5.627,4.221h1.407v9.942H14.115Zm-5.627,5.627H9.895v4.314H8.488Zm-5.627-2.814H4.267v7.128H2.861Zm0,0" transform="translate(0 -142.966)"/></svg>