<svg xmlns="http://www.w3.org/2000/svg" width="28.873" height="28.873" viewBox="0 0 28.873 28.873"><defs><style>.a,.c{fill:none;}.a{stroke:#fff;stroke-width:2px;}.b{fill:#fff;}.d{fill:#434c5f;}.e{stroke:none;}</style></defs><g transform="translate(0 0)"><g class="a"><rect class="e" width="23.939" height="23.939"/><rect class="c" x="1" y="1" width="21.939" height="21.939"/></g><g transform="translate(4.655 4.655)"><g class="a" transform="translate(4.655)"><rect class="e" width="10.64" height="2.66"/><rect class="c" x="1" y="1" width="8.64" height="0.66"/></g><g class="a"><rect class="e" width="2.66" height="2.66"/><rect class="c" x="1" y="1" width="0.66" height="0.66"/></g><g class="a" transform="translate(4.655 5.985)"><rect class="e" width="10.64" height="2.66"/><rect class="c" x="1" y="1" width="8.64" height="0.66"/></g><g class="a" transform="translate(0 5.985)"><rect class="e" width="2.66" height="2.66"/><rect class="c" x="1" y="1" width="0.66" height="0.66"/></g><g class="a" transform="translate(4.655 11.97)"><rect class="e" width="10.64" height="2.66"/><rect class="c" x="1" y="1" width="8.64" height="0.66"/></g><g class="a" transform="translate(0 11.97)"><rect class="e" width="2.66" height="2.66"/><rect class="c" x="1" y="1" width="0.66" height="0.66"/></g></g></g><circle class="b" cx="8.312" cy="8.312" r="8.312" transform="translate(11.305 10.64)"/><g transform="translate(9.975 9.975)"><path class="c" d="M0,0H18.9V18.9H0Z"/><path class="d" d="M10.449,3a7.087,7.087,0,0,0-7.087,7.087H1L4.063,13.15l.055.11L7.3,10.087H4.937a5.538,5.538,0,1,1,1.622,3.89L5.441,15.095A7.085,7.085,0,1,0,10.449,3ZM9.662,6.937v3.937l3.37,2,.567-.953-2.756-1.638V6.937Z" transform="translate(-0.213 -0.638)"/></g></svg>