<svg xmlns="http://www.w3.org/2000/svg" xmlns:xa="http://www.w3.org/1999/xa" width="24" height="24" viewBox="0 0 24 24"><defs><style>.a,.d,.e{fill:none;}.a{stroke:#fff;stroke-width:2px;}.b{fill:#fff;}.c,.f{stroke:none;}.e{clip-path:url(#b);}.f{fill:#68737a;}</style><clipPath id="b"><use xa:href="#a"/></clipPath></defs><g class="a"><rect class="c" width="24" height="24"/><rect class="d" x="1" y="1" width="22" height="22"/></g><g transform="translate(4.668 4.668)"><g class="a"><rect class="c" width="5.827" height="6.002"/><rect class="d" x="1" y="1" width="3.827" height="4.002"/></g><g class="a" transform="translate(0 8.669)"><rect class="c" width="5.827" height="6.002"/><rect class="d" x="1" y="1" width="3.827" height="4.002"/></g><g class="a" transform="translate(7.335 2.001)"><rect id="a" class="c" width="7.161" height="1.334"/><path class="e" d="M0,0.3336981534957886h7.16113805770874M6.16113805770874,0v1.3336981534957886M7.16113805770874,1h-7.16113805770874M1,1.3336981534957886v-1.3336981534957886"/></g></g><g class="b" transform="translate(-0.805 0.14)"><path class="c" d="M 11.81445026397705 19.57261276245117 L 11.4607105255127 19.2188720703125 L 8.066450119018555 15.82461166381836 L 7.712890148162842 15.47106170654297 L 8.066450119018555 15.11751174926758 L 9.006710052490234 14.1772518157959 L 9.360739707946777 13.82321166992188 L 9.714289665222168 14.17773246765137 L 11.80807304382324 16.27722930908203 L 16.84885025024414 11.23645210266113 L 17.20240020751953 10.88289165496826 L 17.55595016479492 11.23645210266113 L 18.4962100982666 12.17671203613281 L 18.84958076477051 12.53007221221924 L 18.49640083312988 12.88363170623779 L 15.42103004455566 15.96224212646484 L 12.16800022125244 19.21869277954102 L 11.81445026397705 19.57261276245117 Z"/><path class="f" d="M 17.20240020751953 11.59000205993652 L 11.80759048461914 16.98481178283691 L 9.360260009765625 14.53080177307129 L 8.420000076293945 15.47106170654297 L 11.81426048278809 18.86532211303711 L 15.06729030609131 15.60887241363525 L 18.14266014099121 12.53025245666504 L 17.20240020751953 11.59000205993652 M 17.20240020751953 10.1757926940918 L 17.90950012207031 10.88289260864258 L 18.84976005554199 11.82314300537109 L 19.55649948120117 12.52987289428711 L 18.85013961791992 13.23698234558105 L 15.77476978302002 16.31560134887695 L 12.5217399597168 19.57206344604492 L 11.81463050842285 20.27991104125977 L 11.10715007781982 19.57243347167969 L 7.712890625 16.17817306518555 L 7.005790710449219 15.47106170654297 L 7.712890625 14.76395225524902 L 8.65315055847168 13.82369232177734 L 9.36121940612793 13.11562156677246 L 10.06833076477051 13.82466125488281 L 11.80854988098145 15.5696325302124 L 16.49528884887695 10.88289260864258 L 17.20240020751953 10.1757926940918 Z"/></g></svg>